<svg xmlns="http://www.w3.org/2000/svg" version="1.1" xmlns:xlink="http://www.w3.org/1999/xlink" xmlns:svgjs="http://svgjs.dev/svgjs" width="1440" height="560" preserveAspectRatio="none" viewBox="0 0 1440 560">
    <g mask="url(&quot;#SvgjsMask1011&quot;)" fill="none">
        <path d="M783 475L782 755" stroke-width="6" stroke="url(&quot;#SvgjsLinearGradient1012&quot;)" stroke-linecap="round" class="Up"></path>
        <path d="M987 371L986 112" stroke-width="6" stroke="url(&quot;#SvgjsLinearGradient1012&quot;)" stroke-linecap="round" class="Up"></path>
        <path d="M665 339L664 -77" stroke-width="6" stroke="url(&quot;#SvgjsLinearGradient1013&quot;)" stroke-linecap="round" class="Down"></path>
        <path d="M656 441L655 661" stroke-width="10" stroke="url(&quot;#SvgjsLinearGradient1013&quot;)" stroke-linecap="round" class="Down"></path>
        <path d="M794 546L793 878" stroke-width="6" stroke="url(&quot;#SvgjsLinearGradient1013&quot;)" stroke-linecap="round" class="Down"></path>
        <path d="M1208 527L1207 176" stroke-width="6" stroke="url(&quot;#SvgjsLinearGradient1012&quot;)" stroke-linecap="round" class="Up"></path>
        <path d="M1270 477L1269 314" stroke-width="6" stroke="url(&quot;#SvgjsLinearGradient1013&quot;)" stroke-linecap="round" class="Down"></path>
        <path d="M1337 197L1336 -143" stroke-width="10" stroke="url(&quot;#SvgjsLinearGradient1013&quot;)" stroke-linecap="round" class="Down"></path>
        <path d="M431 486L430 269" stroke-width="10" stroke="url(&quot;#SvgjsLinearGradient1012&quot;)" stroke-linecap="round" class="Up"></path>
        <path d="M1249 154L1248 -213" stroke-width="6" stroke="url(&quot;#SvgjsLinearGradient1013&quot;)" stroke-linecap="round" class="Down"></path>
        <path d="M1044 291L1043 5" stroke-width="10" stroke="url(&quot;#SvgjsLinearGradient1012&quot;)" stroke-linecap="round" class="Up"></path>
        <path d="M770 269L769 597" stroke-width="6" stroke="url(&quot;#SvgjsLinearGradient1013&quot;)" stroke-linecap="round" class="Down"></path>
        <path d="M334 58L333 394" stroke-width="8" stroke="url(&quot;#SvgjsLinearGradient1013&quot;)" stroke-linecap="round" class="Down"></path>
        <path d="M349 251L348 478" stroke-width="10" stroke="url(&quot;#SvgjsLinearGradient1012&quot;)" stroke-linecap="round" class="Up"></path>
        <path d="M830 386L829 142" stroke-width="8" stroke="url(&quot;#SvgjsLinearGradient1012&quot;)" stroke-linecap="round" class="Up"></path>
        <path d="M173 383L172 788" stroke-width="10" stroke="url(&quot;#SvgjsLinearGradient1012&quot;)" stroke-linecap="round" class="Up"></path>
        <path d="M452 526L451 360" stroke-width="10" stroke="url(&quot;#SvgjsLinearGradient1012&quot;)" stroke-linecap="round" class="Up"></path>
        <path d="M333 154L332 387" stroke-width="8" stroke="url(&quot;#SvgjsLinearGradient1012&quot;)" stroke-linecap="round" class="Up"></path>
        <path d="M278 334L277 68" stroke-width="6" stroke="url(&quot;#SvgjsLinearGradient1013&quot;)" stroke-linecap="round" class="Down"></path>
        <path d="M1358 18L1357 258" stroke-width="10" stroke="url(&quot;#SvgjsLinearGradient1012&quot;)" stroke-linecap="round" class="Up"></path>
        <path d="M838 547L837 810" stroke-width="10" stroke="url(&quot;#SvgjsLinearGradient1013&quot;)" stroke-linecap="round" class="Down"></path>
        <path d="M92 365L91 740" stroke-width="8" stroke="url(&quot;#SvgjsLinearGradient1012&quot;)" stroke-linecap="round" class="Up"></path>
        <path d="M792 76L791 -188" stroke-width="6" stroke="url(&quot;#SvgjsLinearGradient1013&quot;)" stroke-linecap="round" class="Down"></path>
        <path d="M317 507L316 320" stroke-width="6" stroke="url(&quot;#SvgjsLinearGradient1012&quot;)" stroke-linecap="round" class="Up"></path>
        <path d="M1296 370L1295 190" stroke-width="10" stroke="url(&quot;#SvgjsLinearGradient1012&quot;)" stroke-linecap="round" class="Up"></path>
        <path d="M755 19L754 329" stroke-width="10" stroke="url(&quot;#SvgjsLinearGradient1013&quot;)" stroke-linecap="round" class="Down"></path>
        <path d="M527 406L526 745" stroke-width="6" stroke="url(&quot;#SvgjsLinearGradient1012&quot;)" stroke-linecap="round" class="Up"></path>
        <path d="M514 540L513 281" stroke-width="6" stroke="url(&quot;#SvgjsLinearGradient1013&quot;)" stroke-linecap="round" class="Down"></path>
        <path d="M517 383L516 676" stroke-width="8" stroke="url(&quot;#SvgjsLinearGradient1012&quot;)" stroke-linecap="round" class="Up"></path>
        <path d="M223 387L222 91" stroke-width="10" stroke="url(&quot;#SvgjsLinearGradient1012&quot;)" stroke-linecap="round" class="Up"></path>
        <path d="M1411 91L1410 -139" stroke-width="8" stroke="url(&quot;#SvgjsLinearGradient1013&quot;)" stroke-linecap="round" class="Down"></path>
        <path d="M124 259L123 25" stroke-width="8" stroke="url(&quot;#SvgjsLinearGradient1012&quot;)" stroke-linecap="round" class="Up"></path>
        <path d="M327 398L326 807" stroke-width="8" stroke="url(&quot;#SvgjsLinearGradient1012&quot;)" stroke-linecap="round" class="Up"></path>
        <path d="M1253 94L1252 -229" stroke-width="6" stroke="url(&quot;#SvgjsLinearGradient1012&quot;)" stroke-linecap="round" class="Up"></path>
        <path d="M588 111L587 -187" stroke-width="8" stroke="url(&quot;#SvgjsLinearGradient1013&quot;)" stroke-linecap="round" class="Down"></path>
        <path d="M41 448L40 109" stroke-width="6" stroke="url(&quot;#SvgjsLinearGradient1013&quot;)" stroke-linecap="round" class="Down"></path>
    </g>
    <defs>
        <mask id="SvgjsMask1011">
            <rect width="1440" height="560" fill="#ffffff"></rect>
        </mask>
        <linearGradient x1="0%" y1="100%" x2="0%" y2="0%" id="SvgjsLinearGradient1012">
            <stop stop-color="rgba(255, 52, 0, 0)" offset="0"></stop>
            <stop stop-color="rgba(255, 52, 0, 1)" offset="1"></stop>
        </linearGradient>
        <linearGradient x1="0%" y1="0%" x2="0%" y2="100%" id="SvgjsLinearGradient1013">
            <stop stop-color="rgba(255, 52, 0, 0)" offset="0"></stop>
            <stop stop-color="rgba(255, 52, 0, 1)" offset="1"></stop>
        </linearGradient>
    </defs>
</svg>